# xmcd
#
# Track frame offsets: 
#        150
#        18649
#        24779
#        43278
#        61777
#        80276
#
# Disc length: 1311 seconds
#
# Revision: 0
# Processed by: cddbd v1.5.2PL0 Copyright (c) Steve Scherf et al.
# Submitted via: ExactAudioCopy v1.0b6
#
DISCID=3e051d06
DTITLE=Isaacs - Why Can't We (Christian World Soundtraks) (2012)
DYEAR=2012
DGENRE=Performance Trax
TTITLE0=Why Can't We - Demonstration
TTITLE1=Why Can't We - Promo
TTITLE2=Why Can't We - Performance Track in Original Key of B
TTITLE3=Why Can't We - Performance Track in Higher Key of D
TTITLE4=Why Can't We - Performance Track in Lower Key of Ab
TTITLE5=Why Can't We - Performance Track in Original Key of B, without
TTITLE5=BGV's
EXTD=
EXTT0=
EXTT1=
EXTT2=
EXTT3=
EXTT4=
EXTT5=
PLAYORDER=
